<svg xmlns="http://www.w3.org/2000/svg" viewBox="0 0 505.36 572.85"><defs><style>.cls-1{fill:none;stroke:#03396c;stroke-linecap:round;stroke-miterlimit:10;stroke-width:40px;}</style></defs><title>my logo new outline bAsset 23</title><g id="Layer_2" data-name="Layer 2"><g id="Layer_1-2" data-name="Layer 1"><path class="cls-1" d="M231.12,462.64h164a90.21,90.21,0,0,1,90.22,90.21H276.11c-46.47,0-73-53.1-45-90.21h0L471.36,143.85A44,44,0,0,0,478.45,105l-.59-2c-10.16-34.74-55.59-43-77.37-14.13L104,482.3c-22,29.16-67.85,20.41-77.55-14.78h0a44,44,0,0,1,7.28-38.18L274.24,110.22h0c28-37.11,1.48-90.21-45-90.21H20a90.22,90.22,0,0,0,90.21,90.22h164"/></g></g></svg>