<svg xmlns="http://www.w3.org/2000/svg" viewBox="0 0 478.97 478.97"><defs><style>.cls-1{fill:#fcfcfc;}</style></defs><title>i know logo whiteAsset 9</title><g id="Layer_2" data-name="Layer 2"><g id="Layer_1-2" data-name="Layer 1"><polygon class="cls-1" points="370.56 125.38 348.65 163.33 347.46 165.39 323.55 206.79 285.27 273.09 283 277.04 239.18 277.04 241.46 273.09 260.85 239.51 279.74 206.79 303.64 165.39 304.83 163.33 326.74 125.38 370.56 125.38"/><polygon class="cls-1" points="283.28 125.38 261.37 163.33 173.4 163.33 162.37 182.44 151.56 201.15 107.75 201.15 118.56 182.44 129.59 163.33 151.5 125.38 283.28 125.38"/><polygon class="cls-1" points="371.26 277.04 371.2 277.15 360.46 295.75 349.29 315.09 327.07 353.59 194.99 353.59 217.21 315.09 305.48 315.09 316.64 295.75 327.38 277.15 327.45 277.04 371.26 277.04"/><polygon class="cls-1" points="239.54 201.15 239.29 201.56 217.39 239.51 195.66 277.15 184.92 295.75 173.75 315.09 151.52 353.59 107.7 353.59 129.93 315.09 141.1 295.75 151.84 277.15 173.57 239.51 195.48 201.56 195.72 201.15 239.54 201.15"/><path class="cls-1" d="M239.48,479A239.54,239.54,0,0,1,146.26,18.83,239.54,239.54,0,0,1,332.71,460.14,237.89,237.89,0,0,1,239.48,479Zm0-439.65c-110.36,0-200.16,89.8-200.16,200.16s89.8,200.17,200.16,200.17,200.17-89.8,200.17-200.17S349.85,39.32,239.48,39.32Z"/></g></g></svg>